<?xml version="1.0" standalone="no"?><!DOCTYPE svg PUBLIC "-//W3C//DTD SVG 1.1//EN" "http://www.w3.org/Graphics/SVG/1.1/DTD/svg11.dtd"><svg t="1558767914449" class="icon" style="" viewBox="0 0 1024 1024" version="1.1" xmlns="http://www.w3.org/2000/svg" p-id="14537" xmlns:xlink="http://www.w3.org/1999/xlink" width="200" height="200"><defs><style type="text/css"></style></defs><path d="M662.9 295.1c-6.1-3.5-13.2-4.4-19.9-2.6l-50.7 13.6c-16.9 4.5-28.7 19.9-28.7 37.4V486c-23.5-16.3-52.3-23.9-81.2-21.1-58.7 5.6-105.8 54.3-109.7 113.2-2.2 34.1 9.4 66.5 32.7 91.4 23 24.5 55.4 38.6 88.9 38.6 67.2 0 121.9-54.7 121.9-121.9 0-2.3-0.1-4.6-0.2-6.5V358.9c0-2.9 1.9-5.4 4.7-6.1l35.8-9.6c14-3.8 22.3-18.2 18.5-32.1-1.7-6.8-6-12.5-12.1-16z m-99.5 291.1c0 38.1-31 69-69 69s-69-31-69-69 31-69 69-69 69 31 69 69z" fill="#494949" p-id="14538"></path><path d="M737 64.3H287c-112.2 0-203.5 91.3-203.5 203.5v488.3c0 112.2 91.3 203.5 203.5 203.5h450c112.2 0 203.5-91.3 203.5-203.5V267.9c0-112.3-91.3-203.6-203.5-203.6z m149.6 691.8c0 82.5-67.1 149.6-149.6 149.6H287c-82.5 0-149.6-67.1-149.6-149.6V267.9c0-82.5 67.1-149.6 149.6-149.6h450c82.5 0 149.6 67.1 149.6 149.6v488.2z" fill="#494949" p-id="14539"></path></svg>