<?xml version="1.0" standalone="no"?><!DOCTYPE svg PUBLIC "-//W3C//DTD SVG 1.1//EN" "http://www.w3.org/Graphics/SVG/1.1/DTD/svg11.dtd"><svg t="1558777967422" class="icon" style="" viewBox="0 0 1024 1024" version="1.1" xmlns="http://www.w3.org/2000/svg" p-id="26422" xmlns:xlink="http://www.w3.org/1999/xlink" width="200" height="200"><defs><style type="text/css"></style></defs><path d="M17.728 241.472v-163.2a48 48 0 0 1 48-47.872h289.024c26.496 0 60.672 17.28 76.288 38.464l127.168 172.608H17.728z" fill="#F1BC00" p-id="26423"></path><path d="M17.088 185.216h926.08c35.264 0 63.808 28.736 63.808 63.936v641.344a63.808 63.808 0 0 1-63.808 63.872H80.896a63.936 63.936 0 0 1-63.808-63.872V185.216z" fill="#FFCF33" p-id="26424"></path><path d="M512 362.496a207.296 207.296 0 1 0 0 414.592 207.296 207.296 0 0 0 0-414.592z m103.68 230.208H505.6a17.024 17.024 0 0 1-17.024-16.96v-110.08c0-9.344 7.616-17.024 16.96-17.024s17.024 7.616 17.024 17.024v92.992H615.68a17.088 17.088 0 0 1 0 34.048z" fill="#F2AE22" p-id="26425"></path></svg>